<svg width="17" height="18" viewBox="0 0 17 18" fill="none" xmlns="http://www.w3.org/2000/svg">
<g clip-path="url(#clip0_1_1001)">
<path d="M9.79936 1.73481V7.29743C9.79936 7.63866 9.5386 7.9149 9.21897 7.9149H7.02358C6.70562 7.9149 6.44487 7.63866 6.44487 7.29743V4.62896H3.98872V15.3931L2.01539 14.1798C1.97501 14.1546 1.93632 14.1293 1.89763 14.1022C1.89763 14.1022 1.89426 14.1022 1.89426 14.0986C1.87408 14.0841 1.85221 14.0697 1.83202 14.0553C1.81183 14.0408 1.78996 14.0246 1.77314 14.0065C1.75295 13.9921 1.73445 13.974 1.71426 13.9596C1.69407 13.9433 1.67557 13.9253 1.65874 13.9072C1.64192 13.8892 1.62005 13.8729 1.60323 13.8549C1.5864 13.8368 1.57126 13.8224 1.55444 13.8043L1.54771 13.7953C1.53089 13.7772 1.51238 13.7592 1.49892 13.7411C1.4821 13.7213 1.46528 13.7032 1.45014 13.6851C1.43332 13.6671 1.41986 13.649 1.40135 13.6256C1.38789 13.6111 1.3778 13.5967 1.36434 13.5786C1.35761 13.5714 1.35088 13.5588 1.34584 13.5515C1.33574 13.5407 1.32901 13.5263 1.31892 13.5154C1.31556 13.5118 1.31219 13.5046 1.30883 13.501C1.29873 13.4811 1.28359 13.4667 1.2735 13.4486C1.27013 13.445 1.26677 13.4378 1.2634 13.4342C1.25331 13.4161 1.24322 13.3999 1.23144 13.3818C1.23144 13.3782 1.22808 13.3782 1.22808 13.3746C1.21798 13.3565 1.20452 13.3349 1.19443 13.315C1.19443 13.315 1.19107 13.3114 1.19107 13.3078C1.18097 13.2861 1.16583 13.2681 1.15574 13.2446C1.15574 13.2446 1.15574 13.2446 1.15574 13.241C1.14564 13.2193 1.13218 13.1977 1.12041 13.1742C1.11032 13.1561 1.10359 13.1345 1.09349 13.1164C1.09013 13.1092 1.08676 13.102 1.0834 13.093C1.07667 13.0749 1.06489 13.0568 1.05816 13.0352C1.04807 13.0117 1.04134 12.99 1.03125 12.9684C1.03125 12.9648 1.02788 12.9612 1.02788 12.9575C1.02115 12.9341 1.01106 12.9124 1.00265 12.8907C0.995919 12.8691 0.98919 12.8456 0.982461 12.8239C0.979096 12.8167 0.979096 12.8095 0.975732 12.8023C0.969002 12.7824 0.965638 12.7607 0.958909 12.7427V12.7391C0.950497 12.7174 0.947133 12.6939 0.940404 12.6687C0.940404 12.6651 0.937039 12.6614 0.937039 12.6578C0.933674 12.6362 0.926945 12.6163 0.92358 12.5946C0.92358 12.591 0.920216 12.5874 0.920216 12.5802C0.916851 12.5621 0.913487 12.5387 0.910122 12.5206C0.906758 12.4953 0.900029 12.4719 0.894982 12.4466C0.891617 12.4213 0.888252 12.3942 0.884888 12.3726C0.881523 12.3473 0.878158 12.322 0.878158 12.2949C0.87143 12.2137 0.868065 12.1324 0.868065 12.0476V5.95236C0.868065 5.29518 1.11368 4.67049 1.54098 4.21551C1.59313 4.15954 1.64865 4.10357 1.70753 4.05302C1.74622 4.01872 1.7866 3.98622 1.82865 3.95191C1.8909 3.90497 1.95314 3.85984 2.0238 3.82012L6.96806 0.774308C7.68303 0.333776 8.56456 0.333776 9.27953 0.774308C9.2829 0.777919 9.28626 0.781529 9.29299 0.781529C9.37879 0.835693 9.45617 0.902495 9.52178 0.976519C9.57393 1.03971 9.62272 1.10651 9.65973 1.17693C9.75057 1.34664 9.79936 1.53802 9.79936 1.73481Z" fill="#04CEDB"/>
<mask id="mask0_1_1001" style="mask-type:luminance" maskUnits="userSpaceOnUse" x="6" y="2" width="10" height="16">
<path d="M6.02934 2.18262H15.393V17.4387H6.02934V2.18262Z" fill="white"/>
</mask>
<g mask="url(#mask0_1_1001)">
<path d="M15.3833 5.95245V12.0477C15.3833 12.9269 14.9426 13.7412 14.2276 14.1799L9.27998 17.2257C8.565 17.6663 7.68348 17.6663 6.96851 17.2257C6.64719 17.0271 6.44868 16.6606 6.44868 16.2652V10.5834C6.44868 10.244 6.70943 9.96598 7.02739 9.96598H9.21941C9.53905 9.96598 9.7998 10.244 9.7998 10.5834V13.3783H12.2576V2.60693L14.2326 3.8202C14.9426 4.25893 15.3833 5.07319 15.3833 5.95245Z" fill="#04CEDB"/>
</g>
</g>
<defs>
<clipPath id="clip0_1_1001">
<rect width="16.15" height="17.3324" fill="white" transform="translate(0 0.333801)"/>
</clipPath>
</defs>
</svg>
